<mxfile host="65bd71144e">
    <diagram id="I5ELgDjuTqXJ-bgPtycQ" name="Page-1">
        <mxGraphModel dx="1139" dy="747" grid="1" gridSize="10" guides="1" tooltips="1" connect="1" arrows="1" fold="1" page="1" pageScale="1" pageWidth="850" pageHeight="1100" math="0" shadow="0">
            <root>
                <mxCell id="0"/>
                <mxCell id="1" parent="0"/>
                <mxCell id="31" value="" style="rounded=0;whiteSpace=wrap;html=1;" parent="1" vertex="1">
                    <mxGeometry x="520" y="990" width="320" height="190" as="geometry"/>
                </mxCell>
                <mxCell id="24" value="" style="rounded=0;whiteSpace=wrap;html=1;" parent="1" vertex="1">
                    <mxGeometry x="520" y="405" width="400" height="310" as="geometry"/>
                </mxCell>
                <mxCell id="2" value="&lt;h1&gt;ScenarioHandler&lt;/h1&gt;&lt;p&gt;This class is for storing data about a scenario and handles its subscenario (a list of scenarios in a scenario) to be a list that can be used as a storyline.&lt;/p&gt;" style="text;html=1;strokeColor=none;fillColor=none;spacing=5;spacingTop=-20;whiteSpace=wrap;overflow=hidden;rounded=0;" parent="1" vertex="1">
                    <mxGeometry x="70" y="120" width="250" height="140" as="geometry"/>
                </mxCell>
                <mxCell id="3" value="&lt;h1&gt;Scenario Sequence as a Storyline&lt;/h1&gt;&lt;p&gt;Every subscenario have its own goals or quest system that have to be completed for continuing to the next. After that, each subscenario has its own sequence trigger for starting and finishing subscenario. The sequence can be dialogue data or any triggers related to the story.&lt;br&gt;&lt;/p&gt;" style="text;html=1;strokeColor=none;fillColor=none;spacing=5;spacingTop=-20;whiteSpace=wrap;overflow=hidden;rounded=0;" parent="1" vertex="1">
                    <mxGeometry x="70" y="280" width="310" height="170" as="geometry"/>
                </mxCell>
                <mxCell id="4" value="&lt;h1&gt;Wait, How to Change a Scenario?&lt;/h1&gt;&lt;p&gt;Every scenario has its own trigger for starting and the finishing of a scenario. By using finishing trigger, the sequence can be utiized for switching/activating another scenario. Or the scenario can be continued by using quest completion.&lt;/p&gt;&lt;p&gt;&lt;span style=&quot;background-color: initial;&quot;&gt;&lt;br&gt;&lt;/span&gt;&lt;/p&gt;" style="text;html=1;strokeColor=none;fillColor=none;spacing=5;spacingTop=-20;whiteSpace=wrap;overflow=hidden;rounded=0;" parent="1" vertex="1">
                    <mxGeometry x="70" y="490" width="310" height="250" as="geometry"/>
                </mxCell>
                <mxCell id="5" value="&lt;h1&gt;Scenario System and the Effect to Game's World&lt;/h1&gt;&lt;p&gt;ScenarioInterface helps in this case, the class will check a scenario related to its filter if it is still active or not. When active, all of its child will be activated that in turn will be visible or triggered in Game's world.&lt;br&gt;&lt;/p&gt;" style="text;html=1;strokeColor=none;fillColor=none;spacing=5;spacingTop=-20;whiteSpace=wrap;overflow=hidden;rounded=0;" parent="1" vertex="1">
                    <mxGeometry x="70" y="840" width="310" height="180" as="geometry"/>
                </mxCell>
                <mxCell id="8" value="ScenarioDiagram" style="text;html=1;strokeColor=none;fillColor=none;align=center;verticalAlign=middle;whiteSpace=wrap;rounded=0;" parent="1" vertex="1">
                    <mxGeometry x="690" y="415" width="60" height="30" as="geometry"/>
                </mxCell>
                <mxCell id="9" value="ScenarioInterface&lt;br&gt;(scenario_1_2)&lt;br&gt;(active)" style="text;html=1;strokeColor=none;fillColor=none;align=center;verticalAlign=middle;whiteSpace=wrap;rounded=0;" parent="1" vertex="1">
                    <mxGeometry x="650" y="1020" width="60" height="30" as="geometry"/>
                </mxCell>
                <mxCell id="17" value="" style="edgeStyle=none;html=1;" parent="1" source="10" target="13" edge="1">
                    <mxGeometry relative="1" as="geometry"/>
                </mxCell>
                <mxCell id="10" value="ScenarioHandler&lt;br&gt;(scenario_1)&lt;br&gt;(currently active)" style="rounded=0;whiteSpace=wrap;html=1;" parent="1" vertex="1">
                    <mxGeometry x="580" y="475" width="120" height="60" as="geometry"/>
                </mxCell>
                <mxCell id="11" value="Subscenario&lt;br&gt;scenario_1_1" style="rounded=0;whiteSpace=wrap;html=1;dashed=1;dashPattern=8 8;" parent="1" vertex="1">
                    <mxGeometry x="580" y="555" width="120" height="60" as="geometry"/>
                </mxCell>
                <mxCell id="12" value="Subscenario&lt;br&gt;scenario_1_2&lt;br&gt;(currently active)" style="rounded=0;whiteSpace=wrap;html=1;" parent="1" vertex="1">
                    <mxGeometry x="580" y="635" width="120" height="60" as="geometry"/>
                </mxCell>
                <mxCell id="13" value="ScenarioHandler&lt;br&gt;(scenario_2)" style="rounded=0;whiteSpace=wrap;html=1;dashed=1;dashPattern=8 8;" parent="1" vertex="1">
                    <mxGeometry x="740" y="475" width="120" height="60" as="geometry"/>
                </mxCell>
                <mxCell id="15" value="Subscenario&lt;br&gt;scenario_2_1" style="rounded=0;whiteSpace=wrap;html=1;dashed=1;dashPattern=8 8;" parent="1" vertex="1">
                    <mxGeometry x="740" y="555" width="120" height="60" as="geometry"/>
                </mxCell>
                <mxCell id="20" value="" style="endArrow=classic;html=1;exitX=0.5;exitY=1;exitDx=0;exitDy=0;entryX=0.5;entryY=0;entryDx=0;entryDy=0;" parent="1" source="10" target="11" edge="1">
                    <mxGeometry width="50" height="50" relative="1" as="geometry">
                        <mxPoint x="520" y="685" as="sourcePoint"/>
                        <mxPoint x="570" y="635" as="targetPoint"/>
                    </mxGeometry>
                </mxCell>
                <mxCell id="21" value="" style="endArrow=classic;html=1;exitX=0.5;exitY=1;exitDx=0;exitDy=0;entryX=0.5;entryY=0;entryDx=0;entryDy=0;" parent="1" source="11" target="12" edge="1">
                    <mxGeometry width="50" height="50" relative="1" as="geometry">
                        <mxPoint x="520" y="685" as="sourcePoint"/>
                        <mxPoint x="570" y="635" as="targetPoint"/>
                    </mxGeometry>
                </mxCell>
                <mxCell id="22" value="" style="endArrow=classic;html=1;exitX=0.5;exitY=1;exitDx=0;exitDy=0;entryX=0.5;entryY=0;entryDx=0;entryDy=0;" parent="1" source="13" target="15" edge="1">
                    <mxGeometry width="50" height="50" relative="1" as="geometry">
                        <mxPoint x="520" y="685" as="sourcePoint"/>
                        <mxPoint x="570" y="635" as="targetPoint"/>
                    </mxGeometry>
                </mxCell>
                <mxCell id="23" value="" style="shape=trapezoid;perimeter=trapezoidPerimeter;whiteSpace=wrap;html=1;fixedSize=1;size=30;" parent="1" vertex="1">
                    <mxGeometry x="550" y="695" width="180" height="130" as="geometry"/>
                </mxCell>
                <mxCell id="16" value="Quest (item collection)&lt;br&gt;(get x items)" style="rounded=0;whiteSpace=wrap;html=1;" parent="1" vertex="1">
                    <mxGeometry x="580" y="755" width="120" height="60" as="geometry"/>
                </mxCell>
                <mxCell id="26" value="Object1" style="rounded=0;whiteSpace=wrap;html=1;fontStyle=1" parent="1" vertex="1">
                    <mxGeometry x="540" y="1090" width="120" height="60" as="geometry"/>
                </mxCell>
                <mxCell id="27" value="Object2" style="rounded=0;whiteSpace=wrap;html=1;fontStyle=1" parent="1" vertex="1">
                    <mxGeometry x="700" y="1090" width="120" height="60" as="geometry"/>
                </mxCell>
                <mxCell id="32" value="" style="rounded=0;whiteSpace=wrap;html=1;dashed=1;dashPattern=8 8;" parent="1" vertex="1">
                    <mxGeometry x="880" y="990" width="320" height="190" as="geometry"/>
                </mxCell>
                <mxCell id="33" value="ScenarioInterface&lt;br&gt;(scenario_2_1)" style="text;html=1;strokeColor=none;fillColor=none;align=center;verticalAlign=middle;whiteSpace=wrap;rounded=0;" parent="1" vertex="1">
                    <mxGeometry x="1010" y="1020" width="60" height="30" as="geometry"/>
                </mxCell>
                <mxCell id="34" value="Object3" style="rounded=0;whiteSpace=wrap;html=1;fontStyle=1;dashed=1;dashPattern=8 8;" parent="1" vertex="1">
                    <mxGeometry x="900" y="1090" width="120" height="60" as="geometry"/>
                </mxCell>
                <mxCell id="35" value="Object4" style="rounded=0;whiteSpace=wrap;html=1;fontStyle=1;dashed=1;dashPattern=8 8;" parent="1" vertex="1">
                    <mxGeometry x="1060" y="1090" width="120" height="60" as="geometry"/>
                </mxCell>
                <mxCell id="36" value="" style="endArrow=classic;html=1;exitX=1;exitY=0.5;exitDx=0;exitDy=0;entryX=0.75;entryY=0;entryDx=0;entryDy=0;curved=1;" parent="1" source="15" target="32" edge="1">
                    <mxGeometry width="50" height="50" relative="1" as="geometry">
                        <mxPoint x="690" y="750" as="sourcePoint"/>
                        <mxPoint x="740" y="700" as="targetPoint"/>
                        <Array as="points">
                            <mxPoint x="1130" y="700"/>
                        </Array>
                    </mxGeometry>
                </mxCell>
                <mxCell id="37" value="" style="endArrow=classic;html=1;exitX=0;exitY=0.5;exitDx=0;exitDy=0;entryX=0.25;entryY=0;entryDx=0;entryDy=0;curved=1;" parent="1" source="12" target="31" edge="1">
                    <mxGeometry width="50" height="50" relative="1" as="geometry">
                        <mxPoint x="520" y="730" as="sourcePoint"/>
                        <mxPoint x="740" y="700" as="targetPoint"/>
                        <Array as="points">
                            <mxPoint x="430" y="850"/>
                        </Array>
                    </mxGeometry>
                </mxCell>
                <mxCell id="38" value="Check the Bound Scenario&lt;br&gt;(Active)" style="text;html=1;strokeColor=none;fillColor=none;align=center;verticalAlign=middle;whiteSpace=wrap;rounded=0;" parent="1" vertex="1">
                    <mxGeometry x="540" y="900" width="90" height="30" as="geometry"/>
                </mxCell>
                <mxCell id="39" value="Check the Bound Scenario&lt;br&gt;(Not Active)" style="text;html=1;strokeColor=none;fillColor=none;align=center;verticalAlign=middle;whiteSpace=wrap;rounded=0;" parent="1" vertex="1">
                    <mxGeometry x="910" y="770" width="160" height="30" as="geometry"/>
                </mxCell>
            </root>
        </mxGraphModel>
    </diagram>
</mxfile>